<svg xmlns="http://www.w3.org/2000/svg" width="101.082" height="50" viewBox="0 0 101.082 50"><defs><style>.a{fill:#fff;}</style></defs><g transform="translate(-1.26 -1.19)"><path class="a" d="M4.93,10.639H9.175V31.751h7.557V4.68H4.93Z" transform="translate(8.132 7.733)"/><path class="a" d="M17.712,32.131A11.865,11.865,0,0,0,22.7,33.153a11.865,11.865,0,0,0,4.985-1.022,10.976,10.976,0,0,0,3.891-2.916,14.148,14.148,0,0,0,2.541-4.54,17.967,17.967,0,0,0,.9-5.893,17.967,17.967,0,0,0-.9-5.893,13.568,13.568,0,0,0-2.541-4.54,11.268,11.268,0,0,0-3.891-2.916A11.865,11.865,0,0,0,22.7,4.41a11.66,11.66,0,0,0-4.985,1.022,11.268,11.268,0,0,0-3.891,2.916,13.568,13.568,0,0,0-2.541,4.54,17.967,17.967,0,0,0-.9,5.893,17.967,17.967,0,0,0,.9,5.893,13.568,13.568,0,0,0,2.541,4.54A10.634,10.634,0,0,0,17.712,32.131ZM18.194,15.5a7.9,7.9,0,0,1,1-2.556A4.949,4.949,0,0,1,20.7,11.3a3.515,3.515,0,0,1,1.994-.6,3.671,3.671,0,0,1,1.994.6A4.6,4.6,0,0,1,26.2,12.949a9.038,9.038,0,0,1,.965,2.556,15.358,15.358,0,0,1,0,6.554,9.038,9.038,0,0,1-.965,2.556A5.064,5.064,0,0,1,24.69,26.3a3.591,3.591,0,0,1-1.994.6,3.515,3.515,0,0,1-1.994-.6,5.064,5.064,0,0,1-1.511-1.684,10.127,10.127,0,0,1-1-2.556,14.72,14.72,0,0,1-.354-3.277A13.2,13.2,0,0,1,18.194,15.5Z" transform="translate(18.735 7.135)"/><path class="a" d="M32.514,15.311l.965-2.635,7.139,19.076H48.69L37.627,4.68H29.362L18.3,31.751h8.04l1-2.7h.032l.707-2.006h.032l.289-.779H35.73l-2.251-6.019h-2.83l1.833-4.911Z" transform="translate(34.793 7.733)"/><path class="a" d="M63.543,1.19H10.95V4.282H61.415L76.584,48.1H10.95V51.19H80.871Z" transform="translate(21.471)"/><path class="a" d="M1.26,51.19h23.6V48.1H4.476V4.282H24.864V1.19H1.26Z"/></g></svg>