<svg xmlns="http://www.w3.org/2000/svg" width="41.473" height="36" viewBox="0 0 41.473 36"><defs><style>.a{fill:#212121;}</style></defs><g transform="translate(0 -3.131)"><path class="a" d="M33.454,13.2V8.551a5.386,5.386,0,0,0-5.372-5.42H13.438a5.427,5.427,0,0,0-5.421,5.42V13.2H2.358A2.359,2.359,0,0,0,0,15.554V20.68a2.358,2.358,0,0,0,2.358,2.358h.7L5.638,37.2a2.358,2.358,0,0,0,2.32,1.935H33.564a2.358,2.358,0,0,0,2.32-1.936l2.575-14.156h.656a2.358,2.358,0,0,0,2.358-2.358V15.554A2.359,2.359,0,0,0,39.115,13.2ZM12.387,8.551A1.065,1.065,0,0,1,13.438,7.5H28.085a1.023,1.023,0,0,1,1,1.051V13.2h-16.7ZM15.649,30.7a1.631,1.631,0,1,1-3.262,0V21.7a1.631,1.631,0,1,1,3.262,0Zm6.747,0a1.632,1.632,0,1,1-3.263,0V21.7a1.632,1.632,0,1,1,3.263,0Zm6.747,0a1.631,1.631,0,1,1-3.262,0V21.7a1.631,1.631,0,1,1,3.262,0Z"/></g></svg>